<svg id="myspace" xmlns="http://www.w3.org/2000/svg" width="59" height="59" viewBox="0 0 59 59">
  <defs>
    <style>
      .cls-1, .cls-2 {
        fill: none;
        stroke: #fff;
        stroke-width: 3px;
      }

      .cls-2 {
        fill-rule: evenodd;
      }
    </style>
  </defs>
  <circle class="cls-1" cx="29.5" cy="29.5" r="28"/>
  <path class="cls-2" d="M658.008,265l0.017-4h1.544v2.426h21.82v-2.36H683V265H658.008Zm14.177-8.025a4.363,4.363,0,0,1-.416.819,1.8,1.8,0,0,1-.455.458,2.024,2.024,0,0,1-.631.274,4.562,4.562,0,0,1-.981.1,6.65,6.65,0,0,1-1.14-.032l-0.013-1.333a6.134,6.134,0,0,0,.9.074,1.052,1.052,0,0,0,.855-0.331,2.271,2.271,0,0,0,.425-0.844l-2.384-6.138h1.765l1.5,4.345,1.464-4.345h1.717l-2.213,5.89Zm-6.868-5.378a0.679,0.679,0,0,0-.641-0.346,1.15,1.15,0,0,0-1.1.815,4.259,4.259,0,0,0-.136,1.265v2.94h-1.457v-3.355a4.554,4.554,0,0,0-.088-1.152,1.158,1.158,0,0,0-.476-0.386,0.88,0.88,0,0,0-.5-0.127,1.231,1.231,0,0,0-.69.2,1.113,1.113,0,0,0-.44.583,4.25,4.25,0,0,0-.132,1.262v2.974H658V250.15h1.528v0.836a2.478,2.478,0,0,1,1.953-.974,2.136,2.136,0,0,1,1.044.242,1.878,1.878,0,0,1,.726.732,2.872,2.872,0,0,1,.891-0.732,2.222,2.222,0,0,1,1.021-.242,1.217,1.217,0,0,1,.833.273,2.021,2.021,0,0,1,.885,2.072v3.914h-1.524S665.317,252.77,665.317,251.6Z" transform="translate(-640.5 -227.5)"/>
</svg>
