<svg id="twitter" xmlns="http://www.w3.org/2000/svg" width="59" height="59" viewBox="0 0 59 59">
  <defs>
    <style>
      .cls-1 {
        fill: none;
        stroke: #fff;
        stroke-width: 3px;
      }

      .cls-2 {
        fill: #fff;
        fill-rule: evenodd;
      }
    </style>
  </defs>
  <circle class="cls-1" cx="29.5" cy="29.5" r="28"/>
  <path class="cls-2" d="M324,255.764a6.448,6.448,0,0,1-3.059-.317,3.268,3.268,0,0,0,2.941-1.788,4.739,4.739,0,0,1-3.182.362c-0.047-.225-0.1-0.439-0.149-0.633-0.714-2.679-3.16-4.839-5.722-4.578,0.206-.085.416-0.165,0.628-0.237,0.28-.1,1.936-0.379,1.676-0.975-0.221-.525-2.244.395-2.624,0.516A2.019,2.019,0,0,0,315.931,247a3.978,3.978,0,0,0-2.11,1.021,1.5,1.5,0,0,0,.4-0.819c-2.055,1.341-3.255,4.043-4.225,6.666a10.182,10.182,0,0,0-2.046-1.682,53.006,53.006,0,0,0-6.926-3.113,3.753,3.753,0,0,0,2.308,3.467,5.568,5.568,0,0,0-1.659.2c0.23,1.237.983,2.255,3.022,2.747a2.451,2.451,0,0,0-1.85.746,3.117,3.117,0,0,0,3.323,1.664c-2.072.913-.845,2.6,0.842,2.35a7.052,7.052,0,0,1-10.014.274c6.8,9.463,21.575,5.6,23.776-3.519A4.049,4.049,0,0,0,324,255.764Z" transform="translate(-280.5 -227.5)"/>
</svg>
