<svg id="youtube" xmlns="http://www.w3.org/2000/svg" width="59" height="59" viewBox="0 0 59 59">
  <defs>
    <style>
      .cls-1 {
        fill: none;
        stroke: #fff;
        stroke-width: 3px;
      }

      .cls-2 {
        fill: #fff;
        fill-rule: evenodd;
      }
    </style>
  </defs>
  <circle class="cls-1" cx="29.5" cy="29.5" r="28"/>
  <path class="cls-2" d="M588.071,266.95H573.928A3.9,3.9,0,0,1,570,263.089v-2.317a3.9,3.9,0,0,1,3.928-3.862h14.143A3.9,3.9,0,0,1,592,260.772v2.317A3.9,3.9,0,0,1,588.071,266.95Zm-12.616-8.491h-3.1v1.488h0.8v5.42h1.58v-5.42h0.711v-1.488Zm4.75,1.549H578.6v3.559a4.679,4.679,0,0,1-.036.8,0.366,0.366,0,0,1-.324.124,0.485,0.485,0,0,1-.365-0.12,3.906,3.906,0,0,1-.04-0.763V259.96h-1.557v3.615q0,0.709.029,0.948a1.29,1.29,0,0,0,.15.459,0.87,0.87,0,0,0,.374.352,1.355,1.355,0,0,0,.637.133,1.241,1.241,0,0,0,.6-0.139,1.177,1.177,0,0,0,.437-0.418l-0.03.457h1.735v-5.359Zm4.786,1.151a1.15,1.15,0,0,0-.027-0.41,0.917,0.917,0,0,0-.163-0.382,0.874,0.874,0,0,0-.392-0.3,1.588,1.588,0,0,0-.608-0.107,1.337,1.337,0,0,0-.563.118,2.2,2.2,0,0,0-.667.36v-1.976h-1.558v6.908h1.448l0.11-.415a2.27,2.27,0,0,0,.671.386,1.238,1.238,0,0,0,.559.129,1.208,1.208,0,0,0,.722-0.218,0.948,0.948,0,0,0,.386-0.514,3.642,3.642,0,0,0,.082-0.9v-2.674Zm4.521,1.91H587.9V263.8a1.527,1.527,0,0,1-.066.554,0.256,0.256,0,0,1-.259.143,0.214,0.214,0,0,1-.211-0.108,1.289,1.289,0,0,1-.055-0.481v-1.576h2.207v-0.344a2.277,2.277,0,0,0-.188-1.05,1.479,1.479,0,0,0-.654-0.709,2.358,2.358,0,0,0-1.184-.267,1.926,1.926,0,0,0-.94.221,1.471,1.471,0,0,0-.7.639,1.135,1.135,0,0,0-.2.753v1.8a3.737,3.737,0,0,0,.089.935,1.508,1.508,0,0,0,.318.589,1.715,1.715,0,0,0,.693.421,2.179,2.179,0,0,0,.855.154,2.392,2.392,0,0,0,.927-0.156,1.488,1.488,0,0,0,.61-0.466,1.606,1.606,0,0,0,.306-0.585,3.628,3.628,0,0,0,.065-0.784v-0.407Zm-2.207-1.848c0-.309.014-0.113,0.042-0.184a0.209,0.209,0,0,1,.22-0.106,0.183,0.183,0,0,1,.189.125c0.031,0.083.047-.119,0.047,0.165v0.4h-0.5v-0.4Zm-4.473,3.271a0.205,0.205,0,0,1-.209-0.124,1.867,1.867,0,0,1-.052-0.569v-2.565c0-.307.015-0.113,0.046-0.189a0.2,0.2,0,0,1,.2-0.114,0.611,0.611,0,0,1,.411.131c0.037,0.087.055-.113,0.055,0.172v2.512a2.34,2.34,0,0,1-.048.618A0.6,0.6,0,0,1,582.832,264.492Zm3.655-9.806a1.6,1.6,0,0,1-.595.569,1.691,1.691,0,0,1-.815.094,2.407,2.407,0,0,1-.967-0.085,1.186,1.186,0,0,1-.509-0.48,1.733,1.733,0,0,1-.2-0.625,12.922,12.922,0,0,1-.041-1.293v-5.207h2.325v5.252a5.258,5.258,0,0,0,.055,1.041,0.431,0.431,0,0,0,.395.164,0.273,0.273,0,0,0,.307-0.17,6.341,6.341,0,0,0,.049-1.091v-5.2h2.325v7.651h-2.365Zm-4.506-.041a2.007,2.007,0,0,1-.872.6,2.489,2.489,0,0,1-1.027.195,6.758,6.758,0,0,1-1.6-.167,1.785,1.785,0,0,1-.831-0.5,1.965,1.965,0,0,1-.423-0.815,5.977,5.977,0,0,1-.127-1.433V250.6a4.639,4.639,0,0,1,.23-1.634,1.9,1.9,0,0,1,.829-0.945,4.221,4.221,0,0,1,1.825-.356,2.572,2.572,0,0,1,1.148.229,2.149,2.149,0,0,1,.866.6,2.1,2.1,0,0,1,.417.758,4.623,4.623,0,0,1,.112,1.187v1.839a7.628,7.628,0,0,1-.1,1.484A2.072,2.072,0,0,1,581.981,254.645ZM580.2,249.97a2.469,2.469,0,0,0-.063-0.727,0.433,0.433,0,0,0-.369-0.15,0.274,0.274,0,0,0-.276.15,2.264,2.264,0,0,0-.069.727v3a2.157,2.157,0,0,0,.069.693,0.265,0.265,0,0,0,.271.161,0.442,0.442,0,0,0,.371-0.147,1.888,1.888,0,0,0,.066-0.633V249.97Zm-4.8,5.34h-2.293V252l-1.7-5.891h2.226a39.244,39.244,0,0,1,.588,3.946c0.134-.977.359-2.228,0.675-3.946l2.226-.049L575.4,252v3.315Z" transform="translate(-550.5 -227.5)"/>
</svg>
